<svg width="1899" height="734" viewBox="0 0 1899 734" fill="none" xmlns="http://www.w3.org/2000/svg">
<path d="M555.675 9.88931e-06V2.13961C555.675 73.9366 497.472 132.14 425.675 132.14H356.281C356.281 132.14 356.281 127.395 356.281 86.8954C356.281 33.3954 308.407 0 308.407 0L555.675 9.88931e-06Z" fill="#3b3a3a"/>
<path d="M240.855 0.000899125C293.322 0.000899125 335.855 42.5339 335.855 95.0009V396.42C335.855 463.317 281.624 517.547 214.727 517.547V159.14C214.727 144.229 202.638 132.14 187.727 132.14H0V130.001C0 58.2038 58.203 0.000899125 130 0.000899125H240.855Z" fill="#3b3a3a"/>
<path d="M562.693 254.918C573.337 241.337 587.102 231.243 603.986 224.636C621.238 217.662 640.875 214.175 662.899 214.175V308.324C653.355 307.223 645.464 306.672 639.224 306.672C616.833 306.672 599.215 312.729 586.368 324.842C573.888 336.954 567.648 355.491 567.648 380.45V472.545C567.648 497.398 547.501 517.545 522.648 517.545H463.038V219.13H562.693V254.918Z" fill="#3b3a3a"/>
<path d="M706.068 264.13C706.068 239.277 726.215 219.13 751.068 219.13H810.678V472.545C810.678 497.398 790.531 517.545 765.678 517.545H706.068V264.13ZM758.373 186.095C739.286 186.095 723.87 180.773 712.124 170.128C700.378 159.484 694.505 146.27 694.505 130.486C694.505 114.703 700.378 101.489 712.124 90.8445C723.87 80.2 739.286 74.8777 758.373 74.8777C777.46 74.8777 792.876 80.0164 804.622 90.294C816.367 100.204 822.24 113.051 822.24 128.835C822.24 145.352 816.367 159.117 804.622 170.128C792.876 180.773 777.46 186.095 758.373 186.095Z" fill="#3b3a3a"/>
<path d="M1066.41 214.175C1093.57 214.175 1118.16 220.415 1140.19 232.895C1162.58 245.374 1180.2 263.36 1193.04 286.852C1206.26 309.976 1212.86 336.954 1212.86 367.787C1212.86 398.62 1206.26 425.782 1193.04 449.273C1180.2 472.764 1162.58 490.934 1140.19 503.781C1118.16 516.26 1093.57 522.5 1066.41 522.5C1027.14 522.5 997.771 510.938 978.317 487.814V517.545H878.662V154.014C878.662 129.161 898.809 109.014 923.662 109.014H983.272V245.007C1003.46 224.452 1031.17 214.175 1066.41 214.175ZM1044.39 439.363C1062.74 439.363 1077.79 433.123 1089.53 420.643C1101.28 407.796 1107.15 390.177 1107.15 367.787C1107.15 345.764 1101.28 328.512 1089.53 316.032C1077.79 303.552 1062.74 297.313 1044.39 297.313C1026.03 297.313 1010.99 303.552 999.239 316.032C987.494 328.512 981.621 345.764 981.621 367.787C981.621 390.177 987.494 407.796 999.239 420.643C1010.99 433.123 1026.03 439.363 1044.39 439.363Z" fill="#3b3a3a"/>
<path d="M1575.32 219.13V517.545H1475.66V485.611C1464.65 497.724 1451.44 506.901 1436.02 513.14C1420.61 519.38 1404.27 522.5 1387.02 522.5C1348.48 522.5 1317.65 511.122 1294.52 488.364C1271.77 465.607 1260.39 431.471 1260.39 385.956V264.13C1260.39 239.277 1280.53 219.13 1305.39 219.13H1365V368.888C1365 391.278 1369.22 407.612 1377.66 417.89C1386.1 428.167 1398.4 433.306 1414.55 433.306C1431.07 433.306 1444.46 427.617 1454.74 416.238C1465.39 404.492 1470.71 386.69 1470.71 362.832V219.13H1575.32Z" fill="#3b3a3a"/>
<path d="M1751.17 522.5C1726.21 522.5 1701.61 519.747 1677.39 514.242C1653.16 508.369 1633.71 500.844 1619.03 491.668L1650.41 420.092C1663.99 428.534 1680.14 435.325 1698.86 440.464C1717.58 445.235 1736.12 447.621 1754.47 447.621C1771.35 447.621 1783.28 445.97 1790.26 442.666C1797.6 438.996 1801.27 433.857 1801.27 427.25C1801.27 420.643 1796.86 416.055 1788.05 413.485C1779.61 410.549 1766.03 407.796 1747.31 405.227C1723.45 402.29 1703.08 398.436 1686.2 393.664C1669.68 388.893 1655.36 380.083 1643.25 367.236C1631.14 354.389 1625.08 336.404 1625.08 313.279C1625.08 294.193 1630.77 277.308 1642.15 262.626C1653.53 247.577 1670.05 235.831 1691.7 227.389C1713.73 218.579 1739.97 214.175 1770.44 214.175C1792.09 214.175 1813.56 216.377 1834.85 220.782C1856.14 225.186 1873.95 231.426 1888.26 239.502L1856.88 310.527C1830.45 295.844 1801.82 288.503 1770.99 288.503C1754.47 288.503 1742.36 290.522 1734.65 294.56C1726.94 298.23 1723.09 303.185 1723.09 309.425C1723.09 316.399 1727.31 321.355 1735.75 324.291C1744.19 326.86 1758.14 329.613 1777.59 332.55C1802.19 336.22 1822.56 340.441 1838.71 345.213C1854.86 349.985 1868.81 358.794 1880.55 371.641C1892.67 384.121 1898.72 401.74 1898.72 424.497C1898.72 443.217 1893.03 460.101 1881.65 475.15C1870.27 489.833 1853.39 501.395 1831 509.837C1808.98 518.279 1782.37 522.5 1751.17 522.5Z" fill="#3b3a3a"/>
<path d="M227.554 649.642H195.298V641.25H269.514V649.642H237.257V733.036H227.554V649.642Z" fill="#3b3a3a"/>
<path d="M404.992 724.644V733.036H340.086V641.25H403.025V649.642H349.79V682.291H397.256V690.552H349.79V724.644H404.992Z" fill="#3b3a3a"/>
<path d="M522.221 733.823C513.13 733.823 504.913 731.812 497.57 727.791C490.315 723.77 484.589 718.219 480.393 711.138C476.285 703.97 474.23 695.972 474.23 687.143C474.23 678.314 476.285 670.359 480.393 663.278C484.589 656.11 490.359 650.516 497.701 646.495C505.044 642.473 513.261 640.463 522.353 640.463C529.171 640.463 535.465 641.599 541.234 643.872C547.004 646.145 551.899 649.467 555.92 653.837L549.757 660C542.589 652.745 533.542 649.117 522.615 649.117C515.359 649.117 508.76 650.778 502.815 654.1C496.871 657.421 492.194 661.967 488.785 667.736C485.463 673.506 483.802 679.975 483.802 687.143C483.802 694.311 485.463 700.78 488.785 706.549C492.194 712.318 496.871 716.864 502.815 720.186C508.76 723.508 515.359 725.168 522.615 725.168C533.629 725.168 542.677 721.497 549.757 714.154L555.92 720.317C551.899 724.688 546.96 728.053 541.103 730.413C535.334 732.686 529.04 733.823 522.221 733.823Z" fill="#3b3a3a"/>
<path d="M708.383 641.25V733.036H698.811V690.683H641.38V733.036H631.676V641.25H641.38V682.16H698.811V641.25H708.383Z" fill="#3b3a3a"/>
<path d="M870.121 641.25V733.036H862.122L803.117 658.558V733.036H793.414V641.25H801.412L860.549 715.728V641.25H870.121Z" fill="#3b3a3a"/>
<path d="M995.275 733.823C986.183 733.823 977.923 731.812 970.492 727.791C963.149 723.682 957.38 718.088 953.184 711.007C949.076 703.926 947.021 695.972 947.021 687.143C947.021 678.314 949.076 670.359 953.184 663.278C957.38 656.198 963.149 650.647 970.492 646.626C977.923 642.517 986.183 640.463 995.275 640.463C1004.37 640.463 1012.54 642.473 1019.79 646.495C1027.14 650.516 1032.91 656.11 1037.1 663.278C1041.3 670.359 1043.4 678.314 1043.4 687.143C1043.4 695.972 1041.3 703.97 1037.1 711.138C1032.91 718.219 1027.14 723.77 1019.79 727.791C1012.54 731.812 1004.37 733.823 995.275 733.823ZM995.275 725.168C1002.53 725.168 1009.09 723.551 1014.94 720.317C1020.8 716.995 1025.39 712.449 1028.71 706.68C1032.03 700.823 1033.69 694.311 1033.69 687.143C1033.69 679.975 1032.03 673.506 1028.71 667.736C1025.39 661.88 1020.8 657.334 1014.94 654.1C1009.09 650.778 1002.53 649.117 995.275 649.117C988.019 649.117 981.419 650.778 975.475 654.1C969.618 657.334 964.985 661.88 961.576 667.736C958.254 673.506 956.593 679.975 956.593 687.143C956.593 694.311 958.254 700.823 961.576 706.68C964.985 712.449 969.618 716.995 975.475 720.317C981.419 723.551 988.019 725.168 995.275 725.168Z" fill="#3b3a3a"/>
<path d="M1120.22 641.25H1129.92V724.644H1181.32V733.036H1120.22V641.25Z" fill="#3b3a3a"/>
<path d="M1290.83 733.823C1281.74 733.823 1273.48 731.812 1266.05 727.791C1258.71 723.682 1252.94 718.088 1248.74 711.007C1244.64 703.926 1242.58 695.972 1242.58 687.143C1242.58 678.314 1244.64 670.359 1248.74 663.278C1252.94 656.198 1258.71 650.647 1266.05 646.626C1273.48 642.517 1281.74 640.463 1290.83 640.463C1299.93 640.463 1308.1 642.473 1315.35 646.495C1322.7 650.516 1328.47 656.11 1332.66 663.278C1336.86 670.359 1338.96 678.314 1338.96 687.143C1338.96 695.972 1336.86 703.97 1332.66 711.138C1328.47 718.219 1322.7 723.77 1315.35 727.791C1308.1 731.812 1299.93 733.823 1290.83 733.823ZM1290.83 725.168C1298.09 725.168 1304.65 723.551 1310.5 720.317C1316.36 716.995 1320.95 712.449 1324.27 706.68C1327.59 700.823 1329.25 694.311 1329.25 687.143C1329.25 679.975 1327.59 673.506 1324.27 667.736C1320.95 661.88 1316.36 657.334 1310.5 654.1C1304.65 650.778 1298.09 649.117 1290.83 649.117C1283.58 649.117 1276.98 650.778 1271.03 654.1C1265.18 657.334 1260.54 661.88 1257.14 667.736C1253.81 673.506 1252.15 679.975 1252.15 687.143C1252.15 694.311 1253.81 700.823 1257.14 706.68C1260.54 712.449 1265.18 716.995 1271.03 720.317C1276.98 723.551 1283.58 725.168 1290.83 725.168Z" fill="#3b3a3a"/>
<path d="M1480.42 687.143H1489.73V722.153C1485.45 725.911 1480.38 728.796 1474.52 730.807C1468.66 732.817 1462.5 733.823 1456.03 733.823C1446.85 733.823 1438.59 731.812 1431.25 727.791C1423.91 723.77 1418.14 718.219 1413.94 711.138C1409.75 703.97 1407.65 695.972 1407.65 687.143C1407.65 678.314 1409.75 670.359 1413.94 663.278C1418.14 656.11 1423.91 650.516 1431.25 646.495C1438.59 642.473 1446.9 640.463 1456.16 640.463C1463.16 640.463 1469.58 641.599 1475.44 643.872C1481.29 646.057 1486.23 649.336 1490.26 653.706L1484.22 659.869C1476.97 652.701 1467.75 649.117 1456.56 649.117C1449.13 649.117 1442.4 650.778 1436.36 654.1C1430.42 657.334 1425.74 661.88 1422.33 667.736C1418.92 673.506 1417.22 679.975 1417.22 687.143C1417.22 694.311 1418.92 700.78 1422.33 706.549C1425.74 712.318 1430.42 716.864 1436.36 720.186C1442.31 723.508 1448.99 725.168 1456.43 725.168C1465.87 725.168 1473.86 722.808 1480.42 718.088V687.143Z" fill="#3b3a3a"/>
<path d="M1572.26 641.25H1581.97V733.036H1572.26V641.25Z" fill="#3b3a3a"/>
<path d="M1731.81 724.644V733.036H1666.9V641.25H1729.84V649.642H1676.61V682.291H1724.07V690.552H1676.61V724.644H1731.81Z" fill="#3b3a3a"/>
<path d="M1835 733.823C1828.18 733.823 1821.62 732.73 1815.33 730.544C1809.12 728.359 1804.31 725.474 1800.9 721.89L1804.71 714.416C1808.03 717.738 1812.44 720.448 1817.95 722.546C1823.46 724.556 1829.14 725.562 1835 725.562C1843.21 725.562 1849.38 724.076 1853.48 721.104C1857.59 718.044 1859.65 714.11 1859.65 709.303C1859.65 705.631 1858.51 702.703 1856.24 700.517C1854.05 698.332 1851.34 696.671 1848.11 695.535C1844.87 694.311 1840.37 693 1834.6 691.601C1827.7 689.853 1822.19 688.192 1818.08 686.618C1813.97 684.957 1810.43 682.466 1807.46 679.144C1804.58 675.822 1803.13 671.321 1803.13 665.639C1803.13 661.006 1804.36 656.81 1806.8 653.051C1809.25 649.204 1813.01 646.145 1818.08 643.872C1823.15 641.599 1829.45 640.463 1836.96 640.463C1842.21 640.463 1847.32 641.206 1852.3 642.692C1857.37 644.091 1861.75 646.057 1865.42 648.593L1862.14 656.329C1858.29 653.794 1854.18 651.914 1849.81 650.69C1845.44 649.379 1841.16 648.724 1836.96 648.724C1828.92 648.724 1822.85 650.297 1818.74 653.444C1814.72 656.504 1812.71 660.481 1812.71 665.376C1812.71 669.048 1813.8 672.02 1815.98 674.293C1818.26 676.478 1821.05 678.183 1824.38 679.406C1827.78 680.543 1832.33 681.81 1838.01 683.209C1844.74 684.87 1850.16 686.531 1854.27 688.192C1858.47 689.765 1862.01 692.213 1864.89 695.535C1867.78 698.769 1869.22 703.183 1869.22 708.778C1869.22 713.411 1867.95 717.651 1865.42 721.497C1862.97 725.256 1859.17 728.272 1854.01 730.544C1848.85 732.73 1842.51 733.823 1835 733.823Z" fill="#3b3a3a"/>
</svg>
