<?xml version="1.0" encoding="UTF-8" standalone="no"?>
<!-- Created with Inkscape (http://www.inkscape.org/) -->

<svg
   xmlns:dc="http://purl.org/dc/elements/1.1/"
   xmlns:cc="http://creativecommons.org/ns#"
   xmlns:rdf="http://www.w3.org/1999/02/22-rdf-syntax-ns#"
   xmlns:svg="http://www.w3.org/2000/svg"
   xmlns="http://www.w3.org/2000/svg"
   xmlns:sodipodi="http://sodipodi.sourceforge.net/DTD/sodipodi-0.dtd"
   xmlns:inkscape="http://www.inkscape.org/namespaces/inkscape"
   width="25.000196mm"
   height="20.000206mm"
   viewBox="0 0 25.000196 20.000206"
   version="1.1"
   id="svg8"
   sodipodi:docname="Council of Europe logo (2013 revised version).svg"
   inkscape:version="0.92.5 (2060ec1f9f, 2020-04-08)">
  <defs
     id="defs2">
    <clipPath
       clipPathUnits="userSpaceOnUse"
       id="clipPath861">
      <path
         d="M 0,0 H 1211.811 V 841.89 H 0 Z"
         id="path859"
         inkscape:connector-curvature="0" />
    </clipPath>
    <clipPath
       clipPathUnits="userSpaceOnUse"
       id="clipPath1059">
      <path
         d="M 0,0 H 1211.811 V 841.89 H 0 Z"
         id="path1057"
         inkscape:connector-curvature="0" />
    </clipPath>
    <clipPath
       clipPathUnits="userSpaceOnUse"
       id="clipPath999">
      <path
         d="M 0,0 H 1211.811 V 841.89 H 0 Z"
         id="path997"
         inkscape:connector-curvature="0" />
    </clipPath>
    <clipPath
       clipPathUnits="userSpaceOnUse"
       id="clipPath861-0">
      <path
         d="M 0,0 H 1211.811 V 841.89 H 0 Z"
         id="path859-1"
         inkscape:connector-curvature="0" />
    </clipPath>
  </defs>
  <sodipodi:namedview
     id="base"
     pagecolor="#ffffff"
     bordercolor="#666666"
     borderopacity="1.0"
     inkscape:pageopacity="0.0"
     inkscape:pageshadow="2"
     inkscape:zoom="5.6"
     inkscape:cx="-6.8500521"
     inkscape:cy="44.028661"
     inkscape:document-units="mm"
     inkscape:current-layer="layer1"
     showgrid="false"
     inkscape:window-width="1920"
     inkscape:window-height="1017"
     inkscape:window-x="-8"
     inkscape:window-y="-8"
     inkscape:window-maximized="1"
     fit-margin-top="0"
     fit-margin-left="0"
     fit-margin-right="0"
     fit-margin-bottom="0" />
  <metadata
     id="metadata5">
    <rdf:RDF>
      <cc:Work
         rdf:about="">
        <dc:format>image/svg+xml</dc:format>
        <dc:type
           rdf:resource="http://purl.org/dc/dcmitype/StillImage" />
        <dc:title></dc:title>
      </cc:Work>
    </rdf:RDF>
  </metadata>
  <g
     inkscape:label="Layer 1"
     inkscape:groupmode="layer"
     id="layer1"
     transform="translate(-29.553343,-81.870534)">
    <g
       transform="matrix(0.35277777,0,0,-0.35277777,-137.26073,114.57067)"
       id="g855">
      <g
         id="g857"
         clip-path="url(#clipPath861-0)">
        <g
           id="g863"
           transform="translate(513.7196,90.1607)">
          <path
             d="M 0,0 C 0.175,0.007 0.349,0.014 0.549,0.014 0.842,0.014 1.281,0 1.684,-0.063 1.67,0.007 1.655,0.062 1.655,0.161 1.655,0.266 1.67,0.329 1.684,0.406 1.238,0.35 0.571,0.342 0,0.35 c -0.006,0.371 -0.006,0.454 -0.006,0.909 0,0.413 0,0.532 0.013,0.812 0.161,0.006 0.307,0.006 0.446,0.006 0.57,0 1.078,-0.056 1.377,-0.098 -0.014,0.07 -0.028,0.134 -0.028,0.238 0,0.106 0.014,0.168 0.028,0.245 C 1.572,2.434 1.328,2.419 0.397,2.419 c -0.522,0 -0.729,0 -1.12,0.043 0.035,-0.671 0.056,-1.783 0.056,-2.462 0,-0.909 -0.027,-1.657 -0.076,-2.371 0.111,0.021 0.194,0.042 0.382,0.042 0.195,0 0.3,-0.021 0.41,-0.042 -0.034,0.42 -0.062,0.714 -0.055,1.406 z"
             style="fill:#214395;fill-opacity:1;fill-rule:nonzero;stroke:none"
             id="path865"
             inkscape:connector-curvature="0" />
        </g>
        <g
           id="g867"
           transform="translate(509.5936,87.9853)">
          <path
             d="m 0,0 c -1.07,0 -1.835,0.833 -1.835,2.196 0,1.581 0.933,2.211 1.857,2.211 0.473,0 1.174,-0.189 1.55,-0.826 C 1.816,3.168 1.879,2.602 1.879,2.238 1.879,0.805 1.099,0 0,0 m 0.056,4.708 c -1.703,0 -2.684,-1.029 -2.684,-2.518 0,-1.553 1.099,-2.491 2.615,-2.491 1.656,0 2.684,1.112 2.684,2.574 0,1.574 -1.161,2.435 -2.615,2.435"
             style="fill:#214395;fill-opacity:1;fill-rule:nonzero;stroke:none"
             id="path869"
             inkscape:connector-curvature="0" />
        </g>
        <g
           id="g871"
           transform="translate(502.4653,88.1883)">
          <path
             d="M 0,0 C 0,2.175 0,2.651 0.062,4.441 -0.063,4.42 -0.195,4.4 -0.376,4.4 c -0.173,0 -0.264,0.02 -0.375,0.041 0.014,-0.3 0.055,-1.335 0.055,-2.287 0,-0.916 -0.007,-1.657 -0.063,-2.552 0.376,0.021 0.549,0.041 1.162,0.041 0.758,0 1.05,-0.028 1.502,-0.041 -0.014,0.055 -0.027,0.126 -0.027,0.237 0,0.098 0.013,0.168 0.027,0.23 C 1.585,0.014 1.001,-0.014 0.647,-0.014 0.472,-0.014 0.333,-0.014 0,0"
             style="fill:#214395;fill-opacity:1;fill-rule:nonzero;stroke:none"
             id="path873"
             inkscape:connector-curvature="0" />
        </g>
        <g
           id="g875"
           transform="translate(499.6873,90.2796)">
          <path
             d="m 0,0 c 0,-1.371 -0.022,-1.727 -0.07,-2.49 0.112,0.021 0.216,0.042 0.369,0.042 0.153,0 0.299,-0.021 0.431,-0.042 -0.021,0.525 -0.049,1.084 -0.049,2.343 0,0.832 0.014,1.664 0.056,2.497 C 0.619,2.322 0.529,2.308 0.334,2.308 0.146,2.308 0.063,2.322 -0.049,2.35 0,1.07 0,1.007 0,0"
             style="fill:#214395;fill-opacity:1;fill-rule:nonzero;stroke:none"
             id="path877"
             inkscape:connector-curvature="0" />
        </g>
        <g
           id="g879"
           transform="translate(498.327,88.7624)">
          <path
             d="m 0,0 c -0.543,-0.651 -1.267,-0.721 -1.579,-0.721 -0.987,0 -1.885,0.721 -1.885,2.175 0,1.35 0.73,2.161 1.829,2.161 0.71,0 1.323,-0.37 1.51,-0.769 h 0.07 c 0.034,0.322 0.062,0.413 0.165,0.699 -0.312,0.14 -0.875,0.371 -1.717,0.371 -1.829,0 -2.663,-1.119 -2.663,-2.468 0,-1.442 0.939,-2.504 2.552,-2.504 0.612,0 1.21,0.146 1.725,0.454 0.013,0.259 0.042,0.406 0.076,0.566 z"
             style="fill:#214395;fill-opacity:1;fill-rule:nonzero;stroke:none"
             id="path881"
             inkscape:connector-curvature="0" />
        </g>
        <g
           id="g883"
           transform="translate(489.3495,91.4053)">
          <path
             d="m 0,0 1.356,-1.419 c 0.119,-0.119 0.237,-0.238 0.355,-0.35 0.487,-0.454 1.53,-1.623 1.745,-1.888 0.049,0.006 0.077,0.014 0.111,0.014 0.043,0 0.077,-0.008 0.133,-0.014 -0.028,0.496 -0.028,1.336 -0.028,1.881 0,1.007 0,2.021 0.119,3.028 C 3.7,1.231 3.602,1.21 3.492,1.21 3.38,1.21 3.296,1.231 3.22,1.252 3.31,0.238 3.31,-0.377 3.31,-2.161 V -2.42 C 2.427,-1.517 2.274,-1.349 0.883,0.126 0.459,0.574 0.292,0.762 0.104,0.979 L -0.125,1.252 C -0.188,1.245 -0.229,1.239 -0.271,1.239 c -0.035,0 -0.069,0.006 -0.111,0.013 V 0.414 c 0,-0.253 0.021,-1.47 0.021,-1.75 0,-0.727 -0.056,-1.93 -0.091,-2.279 0.083,0.021 0.146,0.041 0.271,0.041 0.125,0 0.209,-0.02 0.292,-0.041 C 0.049,-2.531 0.021,-2.133 0,-0.441 Z"
             style="fill:#214395;fill-opacity:1;fill-rule:nonzero;stroke:none"
             id="path885"
             inkscape:connector-curvature="0" />
        </g>
        <g
           id="g887"
           transform="translate(483.8611,89.7341)">
          <path
             d="m 0,0 c 0,-0.601 0.035,-0.986 0.293,-1.336 0.431,-0.58 1.161,-0.706 1.696,-0.706 0.793,0 1.238,0.245 1.531,0.552 0.465,0.483 0.5,1.238 0.5,1.917 0,1.034 0.028,1.832 0.118,2.469 C 4.055,2.875 3.985,2.854 3.832,2.854 c -0.16,0 -0.236,0.021 -0.327,0.042 0.07,-0.455 0.098,-1.832 0.098,-2.099 0,-0.174 -0.007,-0.965 -0.119,-1.44 -0.229,-0.979 -1.175,-1.021 -1.37,-1.021 -0.438,0 -0.889,0.174 -1.112,0.454 -0.278,0.343 -0.306,0.832 -0.306,1.714 0,0.147 0,1.475 0.062,2.392 C 0.64,2.875 0.508,2.854 0.355,2.854 0.23,2.854 0.09,2.875 -0.056,2.896 0,2.021 0,1.881 0,0"
             style="fill:#214395;fill-opacity:1;fill-rule:nonzero;stroke:none"
             id="path889"
             inkscape:connector-curvature="0" />
        </g>
        <g
           id="g891"
           transform="translate(541.8895,90.5176)">
          <path
             d="m 0,0 c -0.007,0.37 -0.007,0.454 -0.007,0.909 0,0.413 0,0.531 0.014,0.805 0.298,0.013 0.424,0.013 0.674,0.013 0.606,0 0.848,-0.041 1.106,-0.09 -0.015,0.07 -0.028,0.126 -0.028,0.223 0,0.091 0.013,0.168 0.028,0.245 C 1.433,2.07 1.084,2.063 0.73,2.063 c -0.486,0 -0.967,0 -1.453,0.042 0.041,-0.685 0.055,-1.63 0.055,-2.329 0,-1.525 -0.035,-1.979 -0.077,-2.504 0.536,0.021 1.078,0.042 1.614,0.042 0.32,0 0.647,0 0.967,-0.042 -0.015,0.07 -0.028,0.126 -0.028,0.224 0,0.098 0.013,0.161 0.028,0.238 C 1.015,-2.35 0.452,-2.35 0.007,-2.35 0,-2.162 -0.015,-1.63 -0.015,-1.266 c 0,0.3 0.008,0.615 0.015,0.916 0.173,0.007 0.376,0.014 0.564,0.014 0.298,0 0.716,-0.021 1.077,-0.07 -0.007,0.077 -0.028,0.14 -0.028,0.217 0,0.098 0.014,0.161 0.028,0.238 C 1.098,-0.015 0.549,-0.007 0,0"
             style="fill:#214395;fill-opacity:1;fill-rule:nonzero;stroke:none"
             id="path893"
             inkscape:connector-curvature="0" />
        </g>
        <g
           id="g895"
           transform="translate(538.1056,90.2379)">
          <path
             d="M 0,0 C -0.006,0.734 -0.006,1.448 0,2.049 0.132,2.07 0.292,2.077 0.404,2.077 0.758,2.077 1.155,1.993 1.391,1.769 1.565,1.602 1.627,1.357 1.627,1.084 1.627,0.014 0.696,-0.021 0,0 m 1.739,2.21 c -0.334,0.161 -0.78,0.161 -1.308,0.161 -0.542,0 -0.882,0 -1.154,0.021 0.035,-0.504 0.055,-0.839 0.055,-1.889 0,-0.985 -0.006,-1.972 -0.055,-2.951 0.098,0.021 0.181,0.042 0.369,0.042 0.201,0 0.285,-0.021 0.403,-0.042 -0.035,0.678 -0.055,1.189 -0.049,2.154 0.112,-0.007 0.223,-0.014 0.335,-0.014 0.423,0 1.014,0.056 1.383,0.293 0.285,0.183 0.667,0.533 0.667,1.169 0,0.469 -0.222,0.853 -0.646,1.056"
             style="fill:#214395;fill-opacity:1;fill-rule:nonzero;stroke:none"
             id="path897"
             inkscape:connector-curvature="0" />
        </g>
        <g
           id="g899"
           transform="translate(533.9254,87.9853)">
          <path
             d="m 0,0 c -1.07,0 -1.836,0.833 -1.836,2.196 0,1.581 0.933,2.211 1.857,2.211 0.474,0 1.175,-0.189 1.552,-0.826 C 1.816,3.168 1.878,2.602 1.878,2.238 1.878,0.805 1.099,0 0,0 m 0.057,4.708 c -1.704,0 -2.686,-1.029 -2.686,-2.518 0,-1.553 1.099,-2.491 2.616,-2.491 1.654,0 2.684,1.112 2.684,2.574 0,1.574 -1.162,2.435 -2.614,2.435"
             style="fill:#214395;fill-opacity:1;fill-rule:nonzero;stroke:none"
             id="path901"
             inkscape:connector-curvature="0" />
        </g>
        <g
           id="g903"
           transform="translate(528.3065,90.3778)">
          <path
             d="m 0,0 c 0,0.147 -0.007,0.636 -0.007,0.958 0,0.315 0,0.637 0.012,0.951 0.091,0.015 0.237,0.035 0.44,0.035 0.508,0 1.196,-0.105 1.196,-0.923 C 1.641,0.049 0.682,0.007 0.367,-0.007 0.2,-0.015 0.132,-0.015 0,0 m 1.001,-0.155 c 0.425,0.078 1.363,0.253 1.363,1.253 0,0.336 -0.09,0.622 -0.354,0.839 -0.23,0.189 -0.489,0.294 -1.316,0.294 -0.11,0 -0.681,-0.007 -0.806,-0.007 -0.146,0 -0.342,0 -0.606,0.028 0.023,-0.784 0.042,-1.511 0.042,-2.161 0,-1.022 -0.012,-1.854 -0.049,-2.679 0.105,0.021 0.181,0.042 0.369,0.042 0.127,0 0.286,-0.014 0.405,-0.042 C -0.007,-1.469 0,-0.742 0,-0.245 h 0.181 c 0.535,-0.636 1.043,-1.294 1.703,-2.343 0.194,0.021 0.356,0.042 0.501,0.042 0.153,0 0.264,-0.021 0.411,-0.042 v 0.084 c -0.084,0.119 -1.538,1.951 -1.795,2.349"
             style="fill:#214395;fill-opacity:1;fill-rule:nonzero;stroke:none"
             id="path905"
             inkscape:connector-curvature="0" />
        </g>
        <g
           id="g907"
           transform="translate(522.5575,89.7341)">
          <path
             d="m 0,0 c 0,-0.601 0.034,-0.986 0.293,-1.336 0.43,-0.58 1.161,-0.706 1.697,-0.706 0.793,0 1.238,0.245 1.53,0.552 0.465,0.483 0.501,1.238 0.501,1.917 0,1.034 0.027,1.832 0.117,2.469 C 4.055,2.875 3.985,2.854 3.833,2.854 3.672,2.854 3.597,2.875 3.506,2.896 3.574,2.441 3.603,1.064 3.603,0.797 c 0,-0.174 -0.006,-0.965 -0.119,-1.44 -0.23,-0.979 -1.174,-1.021 -1.37,-1.021 -0.437,0 -0.889,0.174 -1.113,0.454 -0.278,0.343 -0.305,0.832 -0.305,1.714 0,0.147 0,1.475 0.063,2.392 C 0.64,2.875 0.508,2.854 0.354,2.854 0.229,2.854 0.09,2.875 -0.056,2.896 0,2.021 0,1.881 0,0"
             style="fill:#214395;fill-opacity:1;fill-rule:nonzero;stroke:none"
             id="path909"
             inkscape:connector-curvature="0" />
        </g>
        <g
           id="g911"
           transform="translate(519.7963,90.5176)">
          <path
             d="m 0,0 c -0.007,0.37 -0.007,0.454 -0.007,0.909 0,0.413 0,0.531 0.014,0.805 0.298,0.013 0.424,0.013 0.674,0.013 0.606,0 0.849,-0.041 1.106,-0.09 C 1.772,1.707 1.76,1.763 1.76,1.86 1.76,1.951 1.772,2.028 1.787,2.105 1.433,2.07 1.084,2.063 0.73,2.063 c -0.486,0 -0.967,0 -1.453,0.042 0.042,-0.685 0.054,-1.63 0.054,-2.329 0,-1.525 -0.034,-1.979 -0.076,-2.504 0.535,0.021 1.079,0.042 1.614,0.042 0.32,0 0.647,0 0.967,-0.042 -0.015,0.07 -0.029,0.126 -0.029,0.224 0,0.098 0.014,0.161 0.029,0.238 C 1.015,-2.35 0.452,-2.35 0.007,-2.35 0,-2.162 -0.015,-1.63 -0.015,-1.266 c 0,0.3 0.008,0.615 0.015,0.916 0.173,0.007 0.375,0.014 0.563,0.014 0.299,0 0.716,-0.021 1.078,-0.07 -0.008,0.077 -0.027,0.14 -0.027,0.217 0,0.098 0.014,0.161 0.027,0.238 C 1.099,-0.015 0.549,-0.007 0,0"
             style="fill:#214395;fill-opacity:1;fill-rule:nonzero;stroke:none"
             id="path913"
             inkscape:connector-curvature="0" />
        </g>
        <g
           id="g915"
           transform="translate(477.1298,88.7624)">
          <path
             d="m 0,0 c -0.543,-0.651 -1.266,-0.721 -1.579,-0.721 -0.988,0 -1.885,0.721 -1.885,2.175 0,1.35 0.731,2.161 1.83,2.161 0.709,0 1.321,-0.37 1.509,-0.769 h 0.069 c 0.035,0.322 0.063,0.413 0.167,0.699 -0.313,0.14 -0.876,0.371 -1.718,0.371 -1.829,0 -2.664,-1.119 -2.664,-2.468 0,-1.442 0.939,-2.504 2.553,-2.504 0.612,0 1.21,0.146 1.725,0.454 0.014,0.259 0.041,0.406 0.076,0.566 z"
             style="fill:#214395;fill-opacity:1;fill-rule:nonzero;stroke:none"
             id="path917"
             inkscape:connector-curvature="0" />
        </g>
        <g
           id="g919"
           transform="translate(480.3288,87.9853)">
          <path
             d="m 0,0 c -1.071,0 -1.836,0.833 -1.836,2.196 0,1.581 0.932,2.211 1.857,2.211 0.472,0 1.175,-0.189 1.551,-0.826 C 1.815,3.168 1.878,2.602 1.878,2.238 1.878,0.805 1.099,0 0,0 m 0.055,4.708 c -1.703,0 -2.684,-1.029 -2.684,-2.518 0,-1.553 1.099,-2.491 2.615,-2.491 1.655,0 2.685,1.112 2.685,2.574 0,1.574 -1.162,2.435 -2.616,2.435"
             style="fill:#214395;fill-opacity:1;fill-rule:nonzero;stroke:none"
             id="path921"
             inkscape:connector-curvature="0" />
        </g>
        <g
           id="g923"
           transform="translate(516.9784,39.5942)">
          <path
             d="M 0,0 C 0.037,-0.006 0.071,-0.011 0.12,-0.044 L 0.779,1.065 C 0.828,1.147 0.862,1.218 0.862,1.294 0.862,1.393 0.791,1.525 0.628,1.525 0.43,1.525 0.381,1.343 0.354,1.25 Z"
             style="fill:#214395;fill-opacity:1;fill-rule:nonzero;stroke:none"
             id="path925"
             inkscape:connector-curvature="0" />
        </g>
        <g
           id="g927"
           transform="translate(541.8898,38.831)">
          <path
             d="m 0,0 c -0.006,0.371 -0.006,0.456 -0.006,0.909 0,0.413 0,0.531 0.013,0.803 0.299,0.016 0.425,0.016 0.674,0.016 0.606,0 0.849,-0.043 1.106,-0.093 C 1.772,1.706 1.76,1.761 1.76,1.86 1.76,1.951 1.772,2.028 1.787,2.104 1.432,2.069 1.085,2.062 0.73,2.062 c -0.486,0 -0.966,0 -1.453,0.042 0.042,-0.685 0.056,-1.629 0.056,-2.328 0,-1.524 -0.035,-1.978 -0.077,-2.502 0.536,0.021 1.078,0.042 1.613,0.042 0.319,0 0.647,0 0.966,-0.042 -0.014,0.07 -0.028,0.126 -0.028,0.224 0,0.098 0.014,0.161 0.028,0.237 -0.82,-0.084 -1.384,-0.084 -1.828,-0.084 -0.007,0.189 -0.02,0.721 -0.02,1.084 0,0.3 0.007,0.616 0.013,0.916 0.174,0.006 0.376,0.014 0.563,0.014 0.299,0 0.717,-0.021 1.078,-0.07 -0.008,0.077 -0.028,0.139 -0.028,0.217 0,0.097 0.014,0.161 0.028,0.237 C 1.098,-0.014 0.549,-0.006 0,0"
             style="fill:#214395;fill-opacity:1;fill-rule:nonzero;stroke:none"
             id="path929"
             inkscape:connector-curvature="0" />
        </g>
        <g
           id="g931"
           transform="translate(538.1085,38.5512)">
          <path
             d="M 0,0 C -0.006,0.734 -0.006,1.447 0,2.049 0.133,2.069 0.293,2.077 0.404,2.077 0.758,2.077 1.155,1.992 1.39,1.769 1.564,1.601 1.627,1.356 1.627,1.084 1.627,0.014 0.695,-0.02 0,0 M 1.738,2.209 C 1.404,2.371 0.96,2.371 0.431,2.371 c -0.542,0 -0.882,0 -1.153,0.02 0.034,-0.503 0.055,-0.838 0.055,-1.888 0,-0.984 -0.007,-1.971 -0.055,-2.949 0.097,0.021 0.18,0.042 0.368,0.042 0.202,0 0.286,-0.021 0.403,-0.042 C 0.015,-1.768 -0.006,-1.257 0,-0.293 0.112,-0.3 0.223,-0.307 0.334,-0.307 c 0.424,0 1.015,0.056 1.384,0.293 0.284,0.182 0.666,0.532 0.666,1.168 0,0.468 -0.223,0.853 -0.646,1.055"
             style="fill:#214395;fill-opacity:1;fill-rule:nonzero;stroke:none"
             id="path933"
             inkscape:connector-curvature="0" />
        </g>
        <g
           id="g935"
           transform="translate(533.932,36.3008)">
          <path
             d="m 0,0 c -1.07,0 -1.834,0.832 -1.834,2.195 0,1.58 0.93,2.208 1.855,2.208 0.472,0 1.174,-0.187 1.55,-0.824 C 1.814,3.166 1.876,2.6 1.876,2.237 1.876,0.804 1.097,0 0,0 m 0.056,4.705 c -1.704,0 -2.684,-1.028 -2.684,-2.517 0,-1.552 1.098,-2.489 2.615,-2.489 1.652,0 2.682,1.112 2.682,2.572 0,1.573 -1.161,2.434 -2.613,2.434"
             style="fill:#214395;fill-opacity:1;fill-rule:nonzero;stroke:none"
             id="path937"
             inkscape:connector-curvature="0" />
        </g>
        <g
           id="g939"
           transform="translate(528.3143,38.6909)">
          <path
             d="m 0,0 c 0,0.147 -0.007,0.636 -0.007,0.958 0,0.315 0,0.637 0.014,0.951 0.091,0.014 0.237,0.034 0.437,0.034 0.508,0 1.197,-0.104 1.197,-0.922 0,-0.972 -0.96,-1.014 -1.273,-1.028 C 0.202,-0.013 0.132,-0.013 0,0 m 1.001,-0.153 c 0.425,0.077 1.362,0.251 1.362,1.251 0,0.336 -0.09,0.622 -0.353,0.839 -0.23,0.189 -0.487,0.294 -1.314,0.294 -0.113,0 -0.681,-0.007 -0.807,-0.007 -0.145,0 -0.341,0 -0.604,0.027 0.021,-0.783 0.041,-1.509 0.041,-2.16 0,-1.02 -0.014,-1.851 -0.048,-2.676 0.104,0.021 0.18,0.041 0.368,0.041 0.125,0 0.285,-0.013 0.403,-0.041 C -0.007,-1.468 0,-0.74 0,-0.244 h 0.181 c 0.534,-0.636 1.042,-1.293 1.704,-2.341 0.193,0.021 0.354,0.041 0.5,0.041 0.153,0 0.264,-0.02 0.41,-0.041 v 0.083 c -0.084,0.119 -1.536,1.95 -1.794,2.349"
             style="fill:#214395;fill-opacity:1;fill-rule:nonzero;stroke:none"
             id="path941"
             inkscape:connector-curvature="0" />
        </g>
        <g
           id="g943"
           transform="translate(522.5697,38.0478)">
          <path
             d="m 0,0 c 0,-0.601 0.034,-0.986 0.293,-1.334 0.43,-0.58 1.16,-0.707 1.694,-0.707 0.794,0 1.238,0.246 1.531,0.553 0.464,0.483 0.5,1.238 0.5,1.915 0,1.035 0.027,1.832 0.117,2.468 C 4.052,2.874 3.982,2.853 3.83,2.853 3.67,2.853 3.594,2.874 3.503,2.895 3.572,2.44 3.601,1.063 3.601,0.798 c 0,-0.176 -0.007,-0.965 -0.12,-1.44 -0.227,-0.979 -1.174,-1.021 -1.369,-1.021 -0.437,0 -0.889,0.175 -1.111,0.455 -0.278,0.341 -0.306,0.831 -0.306,1.711 0,0.147 0,1.476 0.062,2.392 C 0.64,2.874 0.508,2.853 0.354,2.853 0.23,2.853 0.091,2.874 -0.056,2.895 0,2.021 0,1.88 0,0"
             style="fill:#214395;fill-opacity:1;fill-rule:nonzero;stroke:none"
             id="path945"
             inkscape:connector-curvature="0" />
        </g>
        <g
           id="g947"
           transform="translate(519.8085,38.831)">
          <path
             d="m 0,0 c -0.005,0.371 -0.005,0.456 -0.005,0.909 0,0.413 0,0.531 0.012,0.803 0.3,0.016 0.425,0.016 0.676,0.016 0.604,0 0.848,-0.043 1.104,-0.093 C 1.772,1.706 1.76,1.761 1.76,1.86 1.76,1.951 1.772,2.028 1.787,2.104 1.433,2.069 1.086,2.062 0.73,2.062 c -0.486,0 -0.965,0 -1.453,0.042 0.042,-0.685 0.056,-1.629 0.056,-2.328 0,-1.524 -0.034,-1.978 -0.075,-2.502 0.534,0.021 1.076,0.042 1.611,0.042 0.32,0 0.647,0 0.967,-0.042 -0.015,0.07 -0.027,0.126 -0.027,0.224 0,0.098 0.012,0.161 0.027,0.237 C 1.016,-2.349 0.454,-2.349 0.007,-2.349 0,-2.16 -0.012,-1.628 -0.012,-1.265 c 0,0.3 0.007,0.616 0.012,0.916 0.175,0.006 0.376,0.014 0.564,0.014 0.298,0 0.715,-0.021 1.077,-0.07 -0.006,0.077 -0.027,0.139 -0.027,0.217 0,0.097 0.014,0.161 0.027,0.237 C 1.099,-0.014 0.549,-0.006 0,0"
             style="fill:#214395;fill-opacity:1;fill-rule:nonzero;stroke:none"
             id="path949"
             inkscape:connector-curvature="0" />
        </g>
        <g
           id="g951"
           transform="translate(515.5677,36.5034)">
          <path
             d="M 0,0 C 0,2.174 0,2.649 0.063,4.439 -0.063,4.418 -0.195,4.397 -0.376,4.397 c -0.174,0 -0.264,0.021 -0.376,0.042 0.015,-0.301 0.056,-1.335 0.056,-2.286 0,-0.916 -0.007,-1.657 -0.062,-2.551 0.375,0.021 0.55,0.042 1.161,0.042 0.757,0 1.05,-0.028 1.501,-0.042 -0.015,0.057 -0.027,0.125 -0.027,0.237 0,0.098 0.012,0.168 0.027,0.23 C 1.584,0.014 1.001,-0.015 0.647,-0.015 0.473,-0.015 0.334,-0.015 0,0"
             style="fill:#214395;fill-opacity:1;fill-rule:nonzero;stroke:none"
             id="path953"
             inkscape:connector-curvature="0" />
        </g>
        <g
           id="g955"
           transform="translate(509.7328,38.831)">
          <path
             d="m 0,0 c -0.007,0.371 -0.007,0.456 -0.007,0.909 0,0.413 0,0.531 0.014,0.803 0.298,0.016 0.424,0.016 0.674,0.016 0.605,0 0.847,-0.043 1.105,-0.093 C 1.772,1.706 1.758,1.761 1.758,1.86 1.758,1.951 1.772,2.028 1.786,2.104 1.432,2.069 1.084,2.062 0.73,2.062 c -0.486,0 -0.967,0 -1.453,0.042 0.042,-0.685 0.056,-1.629 0.056,-2.328 0,-1.524 -0.036,-1.978 -0.078,-2.502 0.537,0.021 1.079,0.042 1.614,0.042 0.32,0 0.647,0 0.966,-0.042 -0.014,0.07 -0.028,0.126 -0.028,0.224 0,0.098 0.014,0.161 0.028,0.237 C 1.015,-2.349 0.452,-2.349 0.007,-2.349 0,-2.16 -0.015,-1.628 -0.015,-1.265 c 0,0.3 0.008,0.616 0.015,0.916 0.173,0.006 0.376,0.014 0.563,0.014 0.299,0 0.716,-0.021 1.078,-0.07 -0.008,0.077 -0.03,0.139 -0.03,0.217 0,0.097 0.015,0.161 0.03,0.237 C 1.099,-0.014 0.549,-0.006 0,0"
             style="fill:#214395;fill-opacity:1;fill-rule:nonzero;stroke:none"
             id="path957"
             inkscape:connector-curvature="0" />
        </g>
        <g
           id="g959"
           transform="translate(506.758,36.7627)">
          <path
             d="m 0,0 c -0.472,-0.335 -1.14,-0.335 -1.438,-0.335 -0.335,0 -0.508,0.013 -0.745,0.041 -0.02,0.691 -0.02,0.838 -0.02,2.118 0,0.643 0.006,1.356 0.034,2 0.223,0.02 0.279,0.027 0.611,0.027 0.557,0 1.148,0 1.634,-0.371 C 0.66,3.041 0.779,2.335 0.779,1.811 0.779,1.251 0.646,0.46 0,0 m 0.786,3.654 c -0.647,0.518 -1.314,0.518 -2.559,0.518 -0.382,0 -0.757,0.008 -1.14,0.021 0.042,-0.748 0.056,-1.013 0.056,-2.055 0,-1.607 -0.034,-2.09 -0.083,-2.795 0.396,0.021 0.557,0.028 0.743,0.028 0.181,0 1.037,-0.028 1.105,-0.028 1.391,0 2.642,0.782 2.642,2.551 0,0.609 -0.16,1.279 -0.764,1.76"
             style="fill:#214395;fill-opacity:1;fill-rule:nonzero;stroke:none"
             id="path961"
             inkscape:connector-curvature="0" />
        </g>
        <g
           id="g963"
           transform="translate(499.2424,36.5034)">
          <path
             d="M 0,0 C 0,2.174 0,2.649 0.062,4.439 -0.063,4.418 -0.195,4.397 -0.376,4.397 c -0.173,0 -0.264,0.021 -0.375,0.042 0.014,-0.301 0.056,-1.335 0.056,-2.286 0,-0.916 -0.007,-1.657 -0.064,-2.551 0.377,0.021 0.55,0.042 1.162,0.042 0.758,0 1.05,-0.028 1.502,-0.042 -0.015,0.057 -0.029,0.125 -0.029,0.237 0,0.098 0.014,0.168 0.029,0.23 C 1.585,0.014 1.001,-0.015 0.646,-0.015 0.472,-0.015 0.333,-0.015 0,0"
             style="fill:#214395;fill-opacity:1;fill-rule:nonzero;stroke:none"
             id="path965"
             inkscape:connector-curvature="0" />
        </g>
        <g
           id="g967"
           transform="translate(496.5007,38.5942)">
          <path
             d="m 0,0 c 0,-1.371 -0.021,-1.728 -0.07,-2.489 0.112,0.021 0.215,0.042 0.368,0.042 0.154,0 0.299,-0.021 0.431,-0.042 -0.021,0.524 -0.048,1.083 -0.048,2.342 0,0.831 0.013,1.663 0.056,2.495 C 0.618,2.32 0.528,2.306 0.333,2.306 0.145,2.306 0.062,2.32 -0.049,2.348 0,1.069 0,1.005 0,0"
             style="fill:#214395;fill-opacity:1;fill-rule:nonzero;stroke:none"
             id="path969"
             inkscape:connector-curvature="0" />
        </g>
        <g
           id="g971"
           transform="translate(493.4208,38.831)">
          <path
             d="m 0,0 c -0.007,0.371 -0.007,0.456 -0.007,0.909 0,0.413 0,0.531 0.014,0.803 0.299,0.016 0.424,0.016 0.674,0.016 0.605,0 0.848,-0.043 1.105,-0.093 C 1.772,1.706 1.759,1.761 1.759,1.86 1.759,1.951 1.772,2.028 1.786,2.104 1.432,2.069 1.083,2.062 0.73,2.062 c -0.487,0 -0.966,0 -1.453,0.042 0.042,-0.685 0.056,-1.629 0.056,-2.328 0,-1.524 -0.035,-1.978 -0.077,-2.502 0.535,0.021 1.077,0.042 1.613,0.042 0.319,0 0.646,0 0.966,-0.042 -0.014,0.07 -0.029,0.126 -0.029,0.224 0,0.098 0.015,0.161 0.029,0.237 C 1.015,-2.349 0.452,-2.349 0.007,-2.349 0,-2.16 -0.014,-1.628 -0.014,-1.265 c 0,0.3 0.007,0.616 0.014,0.916 0.173,0.006 0.375,0.014 0.563,0.014 0.299,0 0.716,-0.021 1.077,-0.07 -0.007,0.077 -0.027,0.139 -0.027,0.217 0,0.097 0.014,0.161 0.027,0.237 C 1.098,-0.014 0.549,-0.006 0,0"
             style="fill:#214395;fill-opacity:1;fill-rule:nonzero;stroke:none"
             id="path973"
             inkscape:connector-curvature="0" />
        </g>
        <g
           id="g975"
           transform="translate(491.4234,40.0551)">
          <path
             d="m 0,0 c 0.021,0.237 0.146,0.517 0.202,0.621 -0.167,0.112 -0.64,0.323 -1.182,0.323 -0.82,0 -1.543,-0.456 -1.543,-1.357 0,-0.321 0.111,-0.671 0.348,-0.867 0.187,-0.168 0.277,-0.202 1.091,-0.544 0.465,-0.19 0.862,-0.4 0.862,-0.966 0,-0.447 -0.299,-0.929 -1.029,-0.929 -0.549,0 -0.959,0.307 -1.161,0.726 h -0.09 c -0.008,-0.09 -0.021,-0.299 -0.125,-0.656 0.361,-0.272 0.806,-0.385 1.265,-0.385 1.237,0 1.745,0.832 1.745,1.559 0,0.265 -0.07,0.636 -0.39,0.894 -0.243,0.204 -0.375,0.252 -1.133,0.546 -0.355,0.139 -0.813,0.329 -0.813,0.88 0,0.245 0.132,0.804 0.89,0.804 0.639,0 0.875,-0.384 0.966,-0.649 z"
             style="fill:#214395;fill-opacity:1;fill-rule:nonzero;stroke:none"
             id="path977"
             inkscape:connector-curvature="0" />
        </g>
        <g
           id="g979"
           transform="translate(484.2172,39.7197)">
          <path
             d="m 0,0 1.355,-1.419 c 0.118,-0.119 0.237,-0.238 0.354,-0.35 0.487,-0.455 1.53,-1.622 1.745,-1.887 0.049,0.007 0.077,0.013 0.111,0.013 0.042,0 0.077,-0.006 0.133,-0.013 -0.028,0.496 -0.028,1.334 -0.028,1.88 0,1.006 0,2.021 0.118,3.027 C 3.698,1.23 3.6,1.208 3.489,1.208 3.377,1.208 3.294,1.23 3.218,1.251 3.309,0.237 3.309,-0.378 3.309,-2.161 V -2.42 C 2.425,-1.518 2.272,-1.35 0.882,0.125 0.458,0.572 0.291,0.761 0.104,0.979 L -0.125,1.251 C -0.188,1.244 -0.229,1.236 -0.271,1.236 c -0.035,0 -0.07,0.008 -0.112,0.015 V 0.413 c 0,-0.253 0.021,-1.469 0.021,-1.749 0,-0.727 -0.055,-1.929 -0.089,-2.278 0.082,0.021 0.145,0.041 0.27,0.041 0.125,0 0.209,-0.02 0.292,-0.041 C 0.048,-2.531 0.02,-2.132 0,-0.441 Z"
             style="fill:#214395;fill-opacity:1;fill-rule:nonzero;stroke:none"
             id="path981"
             inkscape:connector-curvature="0" />
        </g>
        <g
           id="g983"
           transform="translate(477.1275,37.0766)">
          <path
             d="m 0,0 c -0.543,-0.649 -1.265,-0.72 -1.578,-0.72 -0.987,0 -1.883,0.72 -1.883,2.175 0,1.348 0.729,2.159 1.827,2.159 0.709,0 1.321,-0.37 1.509,-0.769 h 0.069 c 0.035,0.321 0.063,0.412 0.167,0.699 -0.313,0.14 -0.876,0.371 -1.717,0.371 -1.828,0 -2.662,-1.118 -2.662,-2.468 0,-1.441 0.938,-2.503 2.551,-2.503 0.612,0 1.209,0.148 1.724,0.454 0.014,0.259 0.041,0.407 0.076,0.568 z"
             style="fill:#214395;fill-opacity:1;fill-rule:nonzero;stroke:none"
             id="path985"
             inkscape:connector-curvature="0" />
        </g>
        <g
           id="g987"
           transform="translate(480.3239,36.3008)">
          <path
             d="m 0,0 c -1.07,0 -1.835,0.832 -1.835,2.195 0,1.58 0.932,2.208 1.856,2.208 0.473,0 1.175,-0.187 1.551,-0.824 C 1.814,3.166 1.877,2.6 1.877,2.237 1.877,0.804 1.099,0 0,0 m 0.056,4.705 c -1.703,0 -2.683,-1.028 -2.683,-2.517 0,-1.552 1.098,-2.489 2.614,-2.489 1.654,0 2.683,1.112 2.683,2.572 0,1.573 -1.161,2.434 -2.614,2.434"
             style="fill:#214395;fill-opacity:1;fill-rule:nonzero;stroke:none"
             id="path989"
             inkscape:connector-curvature="0" />
        </g>
      </g>
    </g>
    <path
       d="M 29.673701,99.101012 H 54.482797 V 84.632185 H 29.673701 Z"
       style="fill:#214395;fill-opacity:1;fill-rule:nonzero;stroke:none;stroke-width:0.35277775"
       id="path991"
       inkscape:connector-curvature="0" />
    <g
       clip-path="url(#clipPath999)"
       id="g995"
       transform="matrix(0.35277777,0,0,-0.35277777,-137.26073,114.57067)">
      <g
         transform="translate(517.4244,69.2562)"
         id="g1001">
        <path
           inkscape:connector-curvature="0"
           id="path1003"
           style="fill:#ffffff;fill-opacity:1;fill-rule:nonzero;stroke:none"
           d="m 0,0 c 0.962,1.246 1.782,4.139 0.355,6.213 -0.935,1.355 -2.466,2.107 -4.008,2.46 -4.18,0.958 -8.503,-0.375 -12.234,-2.335 -3.162,-1.662 -6.364,-3.937 -8.46,-6.969 -0.702,-1.015 -1.301,-2.166 -1.664,-3.614 -0.353,-1.411 -0.489,-2.881 -0.286,-4.329 1.074,-7.667 9.313,-10.467 15.805,-10.252 4.452,0.146 8.951,1.392 12.862,3.619 3.486,1.986 6.897,4.753 9.064,8.274 0.096,0.153 0.865,1.496 1.161,1.303 0.293,-0.19 -0.525,-1.501 -0.619,-1.655 -2.277,-3.699 -5.224,-6.871 -8.73,-9.326 -3.699,-2.591 -7.975,-4.295 -12.399,-4.91 -3.789,-0.527 -7.812,-0.383 -11.405,1.089 -3.011,1.235 -5.649,3.372 -6.925,6.536 -1.165,2.89 -0.884,6.125 0.207,8.992 2.897,7.611 9.59,13.548 17.054,15.943 3.416,1.096 8.169,1.711 11.24,-0.711 C 4.715,7.41 3.122,2.379 0,0" />
      </g>
    </g>
    <g
       id="g1005"
       transform="matrix(0.35277777,0,0,-0.35277777,42.290551,88.610388)">
      <path
         d="M 0,0 0.977,0.713 H -0.231 L -0.605,1.87 -0.979,0.713 H -2.188 L -1.209,0 l -0.373,-1.155 0.977,0.714 0.977,-0.714 z"
         style="fill:#fbc707;fill-opacity:1;fill-rule:nonzero;stroke:none"
         id="path1007"
         inkscape:connector-curvature="0" />
    </g>
    <g
       id="g1009"
       transform="matrix(0.35277777,0,0,-0.35277777,44.060965,89.086612)">
      <path
         d="M 0,0 0.978,0.713 H -0.231 L -0.605,1.87 -0.981,0.713 H -2.188 L -1.209,0 l -0.374,-1.156 0.978,0.714 0.976,-0.714 z"
         style="fill:#fbc707;fill-opacity:1;fill-rule:nonzero;stroke:none"
         id="path1011"
         inkscape:connector-curvature="0" />
    </g>
    <g
       id="g1013"
       transform="matrix(0.35277777,0,0,-0.35277777,45.356402,90.390267)">
      <path
         d="M 0,0 0.977,0.713 H -0.23 L -0.606,1.87 -0.98,0.713 H -2.189 L -1.211,0 l -0.371,-1.156 0.976,0.714 0.978,-0.714 z"
         style="fill:#fbc707;fill-opacity:1;fill-rule:nonzero;stroke:none"
         id="path1015"
         inkscape:connector-curvature="0" />
    </g>
    <g
       id="g1017"
       transform="matrix(0.35277777,0,0,-0.35277777,45.830181,92.170383)">
      <path
         d="M 0,0 0.976,0.714 H -0.231 L -0.607,1.871 -0.98,0.714 H -2.188 L -1.211,0 l -0.371,-1.157 0.975,0.715 0.979,-0.715 z"
         style="fill:#fbc707;fill-opacity:1;fill-rule:nonzero;stroke:none"
         id="path1019"
         inkscape:connector-curvature="0" />
    </g>
    <g
       id="g1021"
       transform="matrix(0.35277777,0,0,-0.35277777,45.354955,93.94968)">
      <path
         d="M 0,0 0.978,0.712 H -0.229 L -0.604,1.869 -0.978,0.712 H -2.187 L -1.209,0 -1.58,-1.155 l 0.976,0.713 0.977,-0.713 z"
         style="fill:#fbc707;fill-opacity:1;fill-rule:nonzero;stroke:none"
         id="path1023"
         inkscape:connector-curvature="0" />
    </g>
    <g
       id="g1025"
       transform="matrix(0.35277777,0,0,-0.35277777,44.059838,95.252144)">
      <path
         d="M 0,0 0.977,0.713 H -0.231 L -0.606,1.868 -0.98,0.713 H -2.187 L -1.209,0 l -0.373,-1.157 0.976,0.715 0.978,-0.715 z"
         style="fill:#fbc707;fill-opacity:1;fill-rule:nonzero;stroke:none"
         id="path1027"
         inkscape:connector-curvature="0" />
    </g>
    <g
       id="g1029"
       transform="matrix(0.35277777,0,0,-0.35277777,42.290551,95.728077)">
      <path
         d="M 0,0 0.977,0.713 H -0.231 L -0.605,1.87 -0.979,0.713 H -2.188 L -1.209,0 l -0.373,-1.157 0.977,0.715 0.977,-0.715 z"
         style="fill:#fbc707;fill-opacity:1;fill-rule:nonzero;stroke:none"
         id="path1031"
         inkscape:connector-curvature="0" />
    </g>
    <g
       id="g1033"
       transform="matrix(0.35277777,0,0,-0.35277777,40.521158,95.252144)">
      <path
         d="M 0,0 0.978,0.713 H -0.23 L -0.605,1.868 -0.979,0.713 H -2.187 L -1.209,0 l -0.373,-1.157 0.977,0.715 0.978,-0.715 z"
         style="fill:#fbc707;fill-opacity:1;fill-rule:nonzero;stroke:none"
         id="path1035"
         inkscape:connector-curvature="0" />
    </g>
    <g
       id="g1037"
       transform="matrix(0.35277777,0,0,-0.35277777,39.225864,93.94968)">
      <path
         d="M 0,0 0.978,0.713 H -0.231 L -0.606,1.87 -0.979,0.713 H -2.188 L -1.209,0 l -0.373,-1.155 0.976,0.713 0.978,-0.713 z"
         style="fill:#fbc707;fill-opacity:1;fill-rule:nonzero;stroke:none"
         id="path1039"
         inkscape:connector-curvature="0" />
    </g>
    <g
       id="g1041"
       transform="matrix(0.35277777,0,0,-0.35277777,38.751836,92.170277)">
      <path
         d="M 0,0 0.978,0.713 H -0.231 L -0.605,1.871 -0.979,0.713 H -2.188 L -1.209,0 l -0.373,-1.157 0.977,0.715 0.977,-0.715 z"
         style="fill:#fbc707;fill-opacity:1;fill-rule:nonzero;stroke:none"
         id="path1043"
         inkscape:connector-curvature="0" />
    </g>
    <g
       id="g1045"
       transform="matrix(0.35277777,0,0,-0.35277777,39.22516,90.390505)">
      <path
         d="M 0,0 0.978,0.713 H -0.23 L -0.605,1.87 -0.979,0.713 H -2.188 L -1.209,0 l -0.372,-1.155 0.976,0.713 0.977,-0.713 z"
         style="fill:#fbc707;fill-opacity:1;fill-rule:nonzero;stroke:none"
         id="path1047"
         inkscape:connector-curvature="0" />
    </g>
    <g
       id="g1049"
       transform="matrix(0.35277777,0,0,-0.35277777,40.519959,89.086612)">
      <path
         d="M 0,0 0.979,0.713 H -0.229 L -0.604,1.87 -0.978,0.713 H -2.187 L -1.208,0 -1.58,-1.156 l 0.976,0.714 0.978,-0.714 z"
         style="fill:#fbc707;fill-opacity:1;fill-rule:nonzero;stroke:none"
         id="path1051"
         inkscape:connector-curvature="0" />
    </g>
    <g
       id="g1061"
       transform="matrix(0.35277777,0,0,-0.35277777,44.929301,90.39026)">
      <path
         d="m 0,0 c -1.396,-1.657 -3.648,-3.168 -6.414,-4.127 -1.786,-0.621 -3.565,-0.936 -5.19,-0.968 l 1.265,2.446 C -6.467,-2.708 -1.488,-1.26 0,0"
         style="fill:#ffffff;fill-opacity:1;fill-rule:nonzero;stroke:none"
         id="path1063"
         inkscape:connector-curvature="0" />
    </g>
  </g>
</svg>
