<svg id="Calque_1" xmlns="http://www.w3.org/2000/svg" version="1.1" viewBox="0 0 382.52 60.74">
  <path fill="#fbc205" d="M45.03,36.28v16.41c-4.69,2.04-10.81,3.31-16.92,3.31-15.64,0-24.31-9.56-24.31-25C3.8,14.52,14.25,3.6,30.88,3.6c4.55,0,9.1.68,13.65,1.81v14.76h-8.74c-.36-1.96-.64-3.77-.78-5.65-1.49-.38-3.05-.53-4.62-.53-8.96,0-14.65,5.95-14.65,16.11,0,9.41,4.69,15.28,13.65,15.28,1.71,0,3.27-.23,4.55-.68v-8.28c-2.13-.15-4.34-.53-5.97-.98v-7.38h20.62v7.6c-1.21.23-2.35.45-3.55.6"></path>
  <path fill="#fbc205" d="M75.96,56.16c-14.86,0-22.11-9.79-22.11-25.76S64.59,3.37,77.67,3.37s22.11,7.75,22.11,25.6c0,16.71-10.52,27.18-23.82,27.18M76.81,14.06c-5.76,0-11.23,4.74-11.23,15.36,0,9.78,3.41,15.96,11.02,15.96,5.26,0,11.45-4.14,11.45-15.66,0-10.24-3.91-15.66-11.23-15.66"></path>
  <path fill="#fbc205" d="M124.87,38.39c-.56,0-1.56,0-2.56-.08v8.51c2.13.15,4.34.53,6.19.9v7.45h-23.47v-7.45c1.85-.38,4.06-.76,6.19-.9V12.71c-2.13-.15-4.34-.53-6.19-.9v-7.45h5.84c2.27,0,8.88-.38,14.01-.38,12.23,0,18.91,5.87,18.91,16.34,0,9.86-6.68,18.07-18.91,18.07M124.66,13.54c-.71,0-1.56,0-2.35.07v14.91c.71.07,1.36.15,1.92.15,4.62-.08,8.18-2.86,8.18-7.83,0-4.29-2.27-7.3-7.75-7.3"></path>
  <path fill="#fbc205" d="M170.73,55.17v-7.45c1.42-.22,3.27-.6,4.69-.75l-1.49-4.59h-15.78l-1.49,4.59c1.49.15,3.27.53,4.7.75v7.45h-19.05v-7.45c1.14-.38,2.27-.6,3.48-.68l13.65-42.69h13.8l14.22,42.69c1.13.08,2.35.3,3.41.68v7.45h-20.12ZM168.18,24.3c-.92-2.86-1.63-5.42-2.13-8.43h-.14c-.5,2.79-1.28,5.95-2.35,9.04l-2.77,8.35h10.45l-3.05-8.96Z"></path>
  <g>
    <path fill="#797979" d="M230.61,4.46c3.3,0,6.17.39,8.6,1.16,2.43.77,4.43,1.86,6.01,3.25,1.58,1.4,2.76,3.07,3.53,5.03.77,1.96,1.16,4.12,1.16,6.49s-.41,4.62-1.23,6.63-2.04,3.73-3.66,5.17c-1.62,1.44-3.63,2.57-6.03,3.38-2.4.81-5.2,1.21-8.39,1.21h-7.53v18.32h-8.23V4.46h15.75ZM230.61,30.27c1.83,0,3.44-.23,4.83-.7,1.39-.47,2.55-1.13,3.48-1.99.93-.86,1.62-1.89,2.09-3.11.47-1.22.7-2.58.7-4.08s-.23-2.8-.69-3.97c-.46-1.17-1.14-2.17-2.06-2.99-.92-.82-2.07-1.45-3.46-1.88-1.4-.43-3.03-.65-4.91-.65h-7.53v19.38h7.53Z"></path>
    <path fill="#797979" d="M296.64,55.1h-6.36c-.73,0-1.31-.18-1.76-.54s-.79-.81-1.02-1.35l-4.22-11.18h-21.8l-4.22,11.18c-.19.47-.52.9-.98,1.3s-1.05.6-1.76.6h-6.37l20.08-50.64h8.33l20.08,50.64ZM281.07,36.11l-6.96-18.5c-.56-1.43-1.14-3.25-1.72-5.45-.26,1.1-.54,2.12-.84,3.04-.3.93-.59,1.74-.84,2.44l-6.96,18.46h17.34Z"></path>
    <path fill="#797979" d="M336.31,43.81c.45,0,.83.18,1.16.53l3.27,3.55c-2.06,2.49-4.6,4.4-7.6,5.75-3,1.35-6.59,2.02-10.76,2.02-3.7,0-7.05-.64-10.04-1.92-2.99-1.28-5.54-3.06-7.65-5.35-2.11-2.29-3.73-5.01-4.87-8.18-1.14-3.16-1.71-6.65-1.71-10.44s.6-7.28,1.81-10.46c1.21-3.18,2.91-5.91,5.1-8.19,2.19-2.29,4.82-4.06,7.88-5.33,3.06-1.27,6.43-1.9,10.11-1.9s6.89.59,9.69,1.78c2.8,1.18,5.23,2.76,7.3,4.73l-2.71,3.83c-.19.26-.41.48-.67.67-.26.19-.61.28-1.06.28-.47,0-1-.22-1.6-.65-.6-.43-1.36-.91-2.29-1.44-.93-.53-2.09-1.01-3.48-1.44-1.39-.43-3.14-.65-5.22-.65-2.42,0-4.63.42-6.65,1.27-2.02.84-3.75,2.07-5.2,3.69-1.45,1.62-2.58,3.59-3.39,5.91s-1.21,4.96-1.21,7.91.42,5.63,1.27,7.96c.84,2.33,2,4.3,3.48,5.91,1.48,1.61,3.21,2.83,5.2,3.67,1.99.84,4.14,1.27,6.44,1.27,1.41,0,2.67-.08,3.78-.23,1.11-.15,2.14-.4,3.08-.74.94-.34,1.82-.77,2.65-1.28s1.66-1.15,2.48-1.9c.47-.42.94-.63,1.41-.63Z"></path>
    <path fill="#797979" d="M379.49,48.45l-.04,6.65h-31.58V4.46h31.58v6.65h-23.31v15.26h18.64v6.44h-18.64v15.65h23.35Z"></path>
  </g>
</svg>
