<svg xmlns="http://www.w3.org/2000/svg" width="196" height="35.904" viewBox="0 0 196 35.904">
  <path id="Path_25" data-name="Path 25" d="M2.838,24.44a5.749,5.749,0,0,0,4.918,2.989c2.157,0,4.124-1.324,4.124-3.555,0-2.687-2.8-3.519-5.561-4.313-2.687-.8-5.486-2.119-5.486-5.334,0-3.708,3.556-5.789,7.415-5.789a7.55,7.55,0,0,1,4.2,1.1,3.667,3.667,0,0,1,1.059,2.914c0,1.286-.265,2.043-1.022,2.043-.378,0-.606-.189-.87-.643C10.934,12.712,9.95,10.1,6.923,10.1a3.2,3.2,0,0,0-3.4,3.14c0,2.687,2.761,3.14,5.032,3.859,2.989.946,5.939,2.156,5.939,5.751a5.866,5.866,0,0,1-2.951,4.994,9.208,9.208,0,0,1-4.616,1.173c-2.611,0-5.032-.909-5.94-1.892A5.883,5.883,0,0,1,0,23.532c0-.757.151-1.438.832-1.438.719,0,.908.605,2.006,2.345m33.9,3.481a11.044,11.044,0,0,0-2.8.908,1.971,1.971,0,0,1-.8.228c-.567,0-.756-.417-.756-.947V25.651c0-.076-.038-.114-.076-.114s-.075,0-.151.114a7.282,7.282,0,0,1-6.167,3.367,5.637,5.637,0,0,1-4.578-1.892c-1.1-1.324-1.475-3.064-1.475-5.562V14.225c0-1.362-.038-2.08-.416-2.573a2.16,2.16,0,0,0-1.211-.605c-.417-.114-.795-.264-.795-.681,0-.378.151-.681.908-.833A13.513,13.513,0,0,0,21.3,8.626a2.2,2.2,0,0,1,.719-.152c.567,0,.756.417.756.909V21.6c0,2.837,1.173,5.07,4.238,5.07a4.987,4.987,0,0,0,3.481-1.362c1.475-1.476,1.892-3.671,1.892-10.14,0-1.816,0-2.951-.417-3.519a2.159,2.159,0,0,0-1.211-.605c-.378-.114-.794-.264-.794-.719,0-.378.189-.643.908-.8a14.3,14.3,0,0,0,2.876-.908,1.86,1.86,0,0,1,.681-.152c.568,0,.795.378.795.909V23.267c0,1.362.038,2.081.416,2.573a2.17,2.17,0,0,0,1.211.605c.416.114.795.265.795.681,0,.341-.114.606-.908.8M60.379,17.895a13.048,13.048,0,0,1-2.346,7.68,7.821,7.821,0,0,1-6.394,3.443,9.25,9.25,0,0,1-5.41-1.854c-.114-.076-.151-.076-.189-.076q-.114,0-.114.228v2.345c0,2.648.265,3.481.606,4.01a2.575,2.575,0,0,0,1.059.909c.416.227.605.378.605.719,0,.453-.416.605-.87.605h-5.6c-.492,0-.87-.152-.87-.605,0-.266.151-.454.568-.681a2.786,2.786,0,0,0,1.1-.947c.3-.491.568-1.286.568-3.9v-16c0-1.059-.038-1.664-.378-2.08a2.486,2.486,0,0,0-1.211-.643c-.605-.189-.832-.416-.832-.681,0-.34.113-.568.983-.795A15.053,15.053,0,0,0,44.6,8.626a1.706,1.706,0,0,1,.643-.189c.53,0,.681.378.681.909v2.231c0,.19.114.265.227.265a.326.326,0,0,0,.227-.113A8.337,8.337,0,0,1,52.7,8.437c5.183,0,7.68,4.692,7.68,9.458m-5.41,8.324a9.444,9.444,0,0,0,2.5-6.81c0-3.821-1.513-8.777-6.015-8.777-3.14,0-5.524,2.8-5.524,8.209,0,5.675,2.535,8.588,5.675,8.588a4.831,4.831,0,0,0,3.367-1.21m25.876-1.7c0,.8-1.135,2.005-2.649,3.027a9.357,9.357,0,0,1-5.069,1.475c-5.07,0-8.967-3.9-8.967-9.761,0-5.562,3.784-10.82,9.572-10.82a7.74,7.74,0,0,1,5.41,2.08,6.964,6.964,0,0,1,2.119,4.768c0,1.929-.719,2.724-2.914,2.724H67.641c-.265,0-.416.075-.416.378A9.856,9.856,0,0,0,68.7,24.024a6.064,6.064,0,0,0,5.108,2.914,7.026,7.026,0,0,0,3.481-.946c1.664-.985,2.118-2.233,2.837-2.233a.728.728,0,0,1,.719.757M67.83,16.5H74.6c2.308,0,3.481-.454,3.481-2.421A4.367,4.367,0,0,0,73.429,9.95c-4.2,0-5.94,4.578-5.94,6.2,0,.265.114.341.34.341m29.508-5.864c0,.757-.264,1.514-1.059,1.514-.945,0-1.211-.8-2.345-.8a3.033,3.033,0,0,0-2.535,1.7C90.339,14.793,90.15,16.8,90.15,22.4c0,2.61.264,3.481.567,4.01a2.776,2.776,0,0,0,1.1.87c.454.227.567.454.567.719,0,.453-.378.605-.87.605h-5.6c-.454,0-.87-.152-.87-.605,0-.265.151-.493.567-.719a2.453,2.453,0,0,0,1.173-1.022c.3-.568.53-1.249.53-3.859,0-2.724-.038-7.15-.038-7.491,0-1.816-.114-2.761-.53-3.216a2.361,2.361,0,0,0-1.172-.643c-.341-.114-.832-.3-.832-.719s.151-.643.946-.833a11.328,11.328,0,0,0,2.5-.794,1.943,1.943,0,0,1,.87-.228c.568,0,.757.341.757.909v3.064c0,.075.038.112.075.112s.076-.075.114-.151c.719-1.4,2.837-3.973,5.183-3.973a2.019,2.019,0,0,1,2.156,2.195m21.413,3.443a19.039,19.039,0,0,1-2.761,9.458c-2.422,3.9-5.789,5.486-8.513,5.486s-4.5-1.249-5.486-1.249c-1.287,0-1.514,1.249-2.459,1.249a.753.753,0,0,1-.832-.833,2.9,2.9,0,0,1,.075-.567L102.9,7.226a13.973,13.973,0,0,0,.378-2.271,1.181,1.181,0,0,0-.946-1.21c-.568-.227-1.589-.416-1.589-1.135,0-.605.416-.87,1.513-1.022A27.279,27.279,0,0,0,107.212.453a1.9,1.9,0,0,1,.606-.112.849.849,0,0,1,.946.832,2.257,2.257,0,0,1-.075.492l-2.611,12.9a1.7,1.7,0,0,0-.038.227c0,.076.076.076.114.076.075,0,.075-.076.188-.265,1.665-2.837,4.692-6.167,8.135-6.167,3.064,0,4.275,2.5,4.275,5.638m-5.032.757c0-.984-.189-2.686-1.589-2.686-1.324,0-2.951,1.55-4.881,4.615-1.929,2.99-2.988,5.978-2.988,7.3,0,1.779,2.5,2.648,3.594,2.648a3.044,3.044,0,0,0,2.232-.983c2.043-2.043,3.632-7.793,3.632-10.9m25.46-3.745c0,.908-.227,2.383-1.514,2.383-1.1,0-1.211-.909-2.459-.909-2.006,0-4.011,2.876-5.07,4.768a31.5,31.5,0,0,0-3.064,8.285l-.492,2.308c-.114.454-.34.605-.833.681l-2.875.378a3.1,3.1,0,0,1-.378.038.579.579,0,0,1-.643-.568,1.21,1.21,0,0,1,.038-.3l2.61-12.826a16.824,16.824,0,0,0,.378-2.345c0-1.588-2.534-1.022-2.534-2.269,0-.606.454-.909,1.551-1.059a24.657,24.657,0,0,0,4.881-1.1,2.091,2.091,0,0,1,.643-.114.816.816,0,0,1,.908.833,1.2,1.2,0,0,1-.038.3l-.908,4.54a1.226,1.226,0,0,0-.037.265.1.1,0,0,0,.113.114c.076,0,.114,0,.265-.265,2.27-3.67,5.145-5.789,7.151-5.789,1.173,0,2.308.643,2.308,2.649m18.953-1.816c0,.643-.908,4.388-1.589,7.566a60.112,60.112,0,0,0-1.476,7.907c0,.606.189,1.06.681,1.06.8,0,1.514-1.1,2.2-1.1a.646.646,0,0,1,.643.681,1.492,1.492,0,0,1-.34.833,6.546,6.546,0,0,1-4.919,2.8c-2.232,0-2.913-1.551-2.913-3.33a15.906,15.906,0,0,1,.3-2.837,1.7,1.7,0,0,0,.038-.228c0-.038,0-.076-.075-.076s-.076.038-.19.228c-1.7,2.951-4.729,6.243-8.172,6.243-2.724,0-4.275-2.119-4.275-5.638a19.141,19.141,0,0,1,2.762-9.458c2.421-3.9,5.713-5.486,8.55-5.486,2.611,0,4.578,1.249,5.486,1.249,1.324,0,1.551-1.249,2.5-1.249a.762.762,0,0,1,.795.833M143.075,22.586c0,1.173.227,2.762,1.588,2.762,1.325,0,2.989-1.665,4.918-4.691,1.891-2.951,2.951-5.978,2.951-7.3,0-1.664-2.384-2.61-3.594-2.61a3.045,3.045,0,0,0-2.232.983c-2.27,2.421-3.632,8.361-3.632,10.858m27.73,2.8a3.209,3.209,0,0,1-1.362,2.005,6.441,6.441,0,0,1-3.9,1.627c-1.967,0-3.026-1.324-3.026-3.4a10.8,10.8,0,0,1,.227-1.968l1.665-8.285a11.639,11.639,0,0,0,.34-2.194,1.146,1.146,0,0,0-.795-1.249c-.756-.3-1.74-.453-1.74-1.21,0-.606.491-.909,1.551-1.022a27.4,27.4,0,0,0,4.919-1.135,2.091,2.091,0,0,1,.643-.114c.568,0,.946.3.946.833a1.2,1.2,0,0,1-.038.3l-2.194,10.971a31.166,31.166,0,0,0-.757,4.351c0,.454.151.946.681.946.832,0,1.513-1.1,2.194-1.1a.638.638,0,0,1,.644.643M168.8,6.356c-1.021,0-2.837-2.269-2.837-3.253S168.573,0,169.556,0c1.022,0,2.837,2.232,2.837,3.253s-2.572,3.1-3.594,3.1M196,25.424c0,.568-.567,1.211-1.4,1.967a6.058,6.058,0,0,1-3.821,1.627,3.015,3.015,0,0,1-3.216-3.33c0-2.156,1.967-8.512,1.967-11.312,0-1.4-.454-2.157-1.627-2.157-1.475,0-3.443,1.74-5.183,5.07a31.621,31.621,0,0,0-2.989,8.172c-.151.795-.341,1.552-.53,2.459-.076.378-.3.605-.832.681l-2.838.378a3.987,3.987,0,0,1-.416.038c-.416,0-.643-.228-.643-.568a1.211,1.211,0,0,1,.038-.3l2.61-12.788a13.386,13.386,0,0,0,.341-2.232c0-1.854-2.535-1.059-2.535-2.421,0-.606.454-.871,1.551-1.022a29.409,29.409,0,0,0,4.956-1.135,2.072,2.072,0,0,1,.605-.114.848.848,0,0,1,.946.833,1.42,1.42,0,0,1-.038.3l-.908,4.578a1.214,1.214,0,0,0-.038.265c0,.076.038.114.075.114.076,0,.151-.114.265-.3,2.383-3.9,5.069-5.789,7.869-5.789,2.687,0,4.238,1.7,4.238,4.426,0,2.913-1.967,9.989-1.967,12.031,0,.454.151.946.681.946.795,0,1.513-1.1,2.232-1.1a.619.619,0,0,1,.606.681" fill="#15181f"/>
</svg>
